<svg version="1.1" id="Layer_1" xmlns="http://www.w3.org/2000/svg" xmlns:xlink="http://www.w3.org/1999/xlink" x="0px" y="0px"
	 width="100%" viewBox="0 0 438 479" enable-background="new 0 0 438 479" xml:space="preserve">
<path fill="#E83650" opacity="1.000000" stroke="none" 
	d="
M0.999996,312.000000 
	C1.000000,236.312439 1.000000,160.624878 1.349476,84.319672 
	C5.121093,68.377991 18.133366,56.140018 34.388866,56.112717 
	C157.545776,55.905846 280.703186,55.993187 403.860443,56.009716 
	C415.965637,56.011341 425.478485,61.396614 431.891632,71.352760 
	C435.112701,76.353279 436.683105,82.417061 439.000000,88.000000 
	C439.000000,206.354233 439.000000,324.708466 438.789795,443.558472 
	C438.579559,444.054291 438.158447,444.005676 438.105713,443.539368 
	C438.052979,379.063690 438.052979,315.054291 438.052979,250.196976 
	C435.781433,251.801025 434.313324,252.802338 432.881989,253.853653 
	C407.007233,272.859039 379.503906,289.138153 349.399170,300.330627 
	C332.483612,306.619568 314.762390,310.741394 297.182983,315.654968 
	C282.686584,297.904907 268.411346,280.339417 254.175934,262.822968 
	C255.639526,261.681213 256.998993,260.792480 258.156891,259.691742 
	C276.254120,242.487823 294.396881,225.330826 312.377563,208.005661 
	C324.545898,196.280960 325.344025,179.211136 314.541138,167.903717 
	C303.344940,156.184616 286.384949,156.098587 273.972290,167.867645 
	C255.973450,184.933212 238.083771,202.113815 220.126587,219.223358 
	C213.449173,225.585571 206.712662,231.885757 199.190796,238.980438 
	C199.190796,236.171906 199.190811,234.564926 199.190781,232.957962 
	C199.190277,206.142044 199.280777,179.325684 199.153336,152.510361 
	C199.082870,137.683075 186.807571,125.904419 171.761108,125.832268 
	C156.578400,125.759468 144.133774,137.770676 144.014053,152.718719 
	C143.935349,162.545044 144.011703,172.372528 143.996597,182.199463 
	C143.946457,214.841385 143.886337,247.483292 143.429260,280.083527 
	C91.844101,268.782806 45.488556,279.481110 3.626765,310.670959 
	C2.851484,311.248596 1.879958,311.562836 0.999996,312.000000 
z"/>
<path fill="#2C2A68" opacity="1.000000" stroke="none" 
	d="
M297.404144,315.839539 
	C314.762390,310.741394 332.483612,306.619568 349.399170,300.330627 
	C379.503906,289.138153 407.007233,272.859039 432.881989,253.853653 
	C434.313324,252.802338 435.781433,251.801025 438.052979,250.196976 
	C438.052979,315.054291 438.052979,379.063690 438.022827,443.949585 
	C436.723267,458.031433 430.097473,468.092102 419.157745,475.093781 
	C415.303802,477.560364 410.415833,478.411346 406.000000,480.000000 
	C281.979095,480.000000 157.958206,480.000000 33.321960,479.628784 
	C22.582829,478.048615 14.541018,473.092773 9.092785,464.684998 
	C5.756853,459.536987 3.655688,453.588837 1.000000,448.000000 
	C1.000000,402.979095 1.000000,357.958221 0.999996,312.468628 
	C1.879958,311.562836 2.851484,311.248596 3.626765,310.670959 
	C45.488556,279.481110 91.844101,268.782806 143.496124,280.533783 
	C143.920105,285.016144 143.876434,289.006592 143.506836,293.068359 
	C137.057724,298.989563 130.950302,304.856049 124.807167,310.684845 
	C117.757050,317.374237 115.972420,326.208801 117.856575,334.817627 
	C120.301567,345.988922 130.330673,355.771637 143.924194,357.376007 
	C144.145447,358.237793 144.221603,358.732422 144.337875,359.217468 
	C147.961761,374.337250 160.607574,383.771759 174.903687,381.871796 
	C190.720261,379.769714 199.816971,365.995758 199.291489,352.683044 
	C198.649094,336.408356 199.273117,320.083740 199.681335,303.899292 
	C207.470108,306.720673 214.927048,309.423492 222.616180,312.334412 
	C223.616806,313.409546 224.418427,314.249481 225.148697,315.147522 
	C240.485748,334.007385 255.684540,352.981659 271.191071,371.701050 
	C281.553589,384.210632 298.389893,385.459778 310.762573,375.096985 
	C322.211243,365.508057 323.469757,348.228638 313.644104,336.098053 
	C308.196716,329.372803 302.815308,322.594147 297.404144,315.839539 
z"/>
<path fill="#FFFFFF" opacity="1.000000" stroke="none" 
	d="
M439.000000,87.531342 
	C436.683105,82.417061 435.112701,76.353279 431.891632,71.352760 
	C425.478485,61.396614 415.965637,56.011341 403.860443,56.009716 
	C280.703186,55.993187 157.545776,55.905846 34.388866,56.112717 
	C18.133366,56.140018 5.121093,68.377991 1.349476,83.851013 
	C1.000000,56.353249 1.000000,28.706495 1.000004,1.061029 
	C147.000015,1.062316 293.000000,1.062316 439.000000,1.062316 
	C439.000000,29.770649 439.000000,58.416664 439.000000,87.531342 
z"/>
<path fill="#FFFFFF" opacity="1.000000" stroke="none" 
	d="
M406.468658,480.000000 
	C410.415833,478.411346 415.303802,477.560364 419.157745,475.093781 
	C430.097473,468.092102 436.723267,458.031433 438.075562,444.415894 
	C438.158447,444.005676 438.579559,444.054291 438.789795,444.027161 
	C439.000000,455.923401 439.000000,467.846771 439.000000,480.000000 
	C428.313538,480.000000 417.625427,480.000000 406.468658,480.000000 
z"/>
<path fill="#FFFFFF" opacity="1.000000" stroke="none" 
	d="
M1.000000,448.468658 
	C3.655688,453.588837 5.756853,459.536987 9.092785,464.684998 
	C14.541018,473.092773 22.582829,478.048615 32.853302,479.628784 
	C22.406794,480.000000 11.813587,480.000000 1.000000,480.000000 
	C1.000000,469.646820 1.000000,459.292053 1.000000,448.468658 
z"/>
<path fill="#F8F8F6" opacity="1.000000" stroke="none" 
	d="
M297.182983,315.654968 
	C302.815308,322.594147 308.196716,329.372803 313.644104,336.098053 
	C323.469757,348.228638 322.211243,365.508057 310.762573,375.096985 
	C298.389893,385.459778 281.553589,384.210632 271.191071,371.701050 
	C255.684540,352.981659 240.485748,334.007385 225.148697,315.147522 
	C224.418427,314.249481 223.616806,313.409546 222.446671,312.006653 
	C214.752228,302.461853 207.459518,293.452972 199.349503,283.434479 
	C199.349503,291.283630 199.349503,297.532166 199.349503,303.780701 
	C199.273117,320.083740 198.649094,336.408356 199.291489,352.683044 
	C199.816971,365.995758 190.720261,379.769714 174.903687,381.871796 
	C160.607574,383.771759 147.961761,374.337250 144.337875,359.217468 
	C144.221603,358.732422 144.145447,358.237793 143.996063,356.911804 
	C143.905258,335.049683 143.869019,314.023346 143.832764,292.997009 
	C143.876434,289.006592 143.920105,285.016144 143.896912,280.575470 
	C143.886337,247.483292 143.946457,214.841385 143.996597,182.199463 
	C144.011703,172.372528 143.935349,162.545044 144.014053,152.718719 
	C144.133774,137.770676 156.578400,125.759468 171.761108,125.832268 
	C186.807571,125.904419 199.082870,137.683075 199.153336,152.510361 
	C199.280777,179.325684 199.190277,206.142044 199.190781,232.957962 
	C199.190811,234.564926 199.190796,236.171906 199.190796,238.980438 
	C206.712662,231.885757 213.449173,225.585571 220.126587,219.223358 
	C238.083771,202.113815 255.973450,184.933212 273.972290,167.867645 
	C286.384949,156.098587 303.344940,156.184616 314.541138,167.903717 
	C325.344025,179.211136 324.545898,196.280960 312.377563,208.005661 
	C294.396881,225.330826 276.254120,242.487823 258.156891,259.691742 
	C256.998993,260.792480 255.639526,261.681213 254.175934,262.822968 
	C268.411346,280.339417 282.686584,297.904907 297.182983,315.654968 
z"/>
<path fill="#302C6A" opacity="1.000000" stroke="none" 
	d="
M143.506851,293.068359 
	C143.869019,314.023346 143.905258,335.049683 143.869644,356.540222 
	C130.330673,355.771637 120.301567,345.988922 117.856575,334.817627 
	C115.972420,326.208801 117.757050,317.374237 124.807167,310.684845 
	C130.950302,304.856049 137.057724,298.989563 143.506851,293.068359 
z"/>
<path fill="#E64358" opacity="1.000000" stroke="none" 
	d="
M199.681335,303.899292 
	C199.349503,297.532166 199.349503,291.283630 199.349503,283.434479 
	C207.459518,293.452972 214.752228,302.461853 222.214447,311.798523 
	C214.927048,309.423492 207.470108,306.720673 199.681335,303.899292 
z"/>
</svg>