<svg version="1.1" id="Layer_1" xmlns="http://www.w3.org/2000/svg" xmlns:xlink="http://www.w3.org/1999/xlink" x="0px" y="0px"
	 width="100%" viewBox="0 0 438 472" enable-background="new 0 0 438 472" xml:space="preserve">
<path fill="#DE738F" opacity="1.000000" stroke="none" 
	d="
M1.000000,307.000000 
	C1.000000,232.312439 1.000000,157.624878 1.337795,82.256248 
	C2.228183,63.939716 20.423532,48.650295 37.884613,48.724300 
	C160.485596,49.243904 283.090027,48.928333 405.692474,49.224945 
	C411.413757,49.238785 417.582550,51.697872 422.742310,54.495003 
	C431.497101,59.241009 436.282074,67.536743 439.000000,77.000000 
	C439.000000,133.354233 439.000000,189.708450 438.649170,246.529724 
	C434.497406,249.680389 430.728668,252.411072 426.890564,255.040466 
	C386.365906,282.803040 342.892761,303.702454 293.758026,311.852783 
	C280.696075,295.918518 267.910187,280.177216 255.169937,264.492065 
	C275.128174,245.528580 294.865479,226.951157 314.391235,208.153976 
	C325.476959,197.481888 325.643219,180.269073 315.166809,168.974609 
	C305.169922,158.197128 287.677460,157.399933 276.456360,167.820297 
	C257.668274,185.267654 239.224380,203.085510 220.625870,220.737167 
	C214.055679,226.972885 207.456924,233.178482 200.001541,240.219101 
	C200.001541,237.142944 200.001587,235.363388 200.001526,233.583832 
	C200.000778,207.096771 200.057343,180.609528 199.972519,154.122742 
	C199.935806,142.655640 192.407425,132.483200 181.525681,128.712753 
	C170.540253,124.906357 158.556412,128.196472 151.195618,136.950592 
	C146.827255,142.145844 144.802383,148.047333 144.804962,154.859070 
	C144.820267,195.336914 144.727188,235.814789 144.395950,276.280151 
	C143.760071,276.241119 143.398773,276.214600 142.653839,276.068848 
	C120.232536,270.758759 98.086441,270.416016 75.861916,274.568390 
	C49.025383,279.582458 24.934904,290.782593 2.761427,307.032715 
	C1.939535,307.011780 1.469767,307.005890 1.000000,307.000000 
z"/>
<path fill="#2C2A68" opacity="1.000000" stroke="none" 
	d="
M3.113553,307.047699 
	C24.934904,290.782593 49.025383,279.582458 75.861916,274.568390 
	C98.086441,270.416016 120.232536,270.758759 142.809387,276.233826 
	C143.763077,276.682495 144.177628,276.846954 144.715652,277.464233 
	C144.782928,283.940491 144.726730,289.963867 144.345398,296.060394 
	C138.042297,301.560516 131.910522,306.831482 126.165611,312.494843 
	C124.005028,314.624786 122.341385,317.494049 121.135811,320.318451 
	C114.461533,335.954895 124.627052,355.983856 144.759171,357.425476 
	C146.225403,373.582062 158.379440,383.800598 174.908890,383.112671 
	C188.509842,382.546600 199.927383,370.131012 199.989059,355.716675 
	C200.068817,337.073883 200.065872,318.430695 200.467773,299.825500 
	C206.225143,301.917938 211.613281,303.972565 217.262955,306.232574 
	C235.489578,328.463440 253.436417,350.503784 271.426727,372.508606 
	C281.684662,385.055542 298.542389,386.898071 310.909485,376.899963 
	C322.862091,367.236908 324.463318,350.289795 314.544128,337.731903 
	C307.752808,329.134003 300.873871,320.605347 294.034119,312.045715 
	C342.892761,303.702454 386.365906,282.803040 426.890564,255.040466 
	C430.728668,252.411072 434.497406,249.680389 438.649170,246.998383 
	C439.000000,311.687561 439.000000,376.375122 438.633759,441.667480 
	C436.846466,449.896576 433.901825,457.068176 428.100952,462.090302 
	C423.043152,466.469055 416.748260,469.418823 411.000000,473.000000 
	C284.312439,473.000000 157.624878,473.000000 30.336426,472.639709 
	C27.882757,471.730743 25.893385,471.451233 24.198700,470.591125 
	C10.066666,463.418152 2.568458,451.892639 1.901277,435.554749 
	C1.973759,394.481689 1.970469,353.873291 2.047157,313.265015 
	C2.051072,311.191895 2.742321,309.120117 3.113553,307.047699 
z"/>
<path fill="#FFFFFF" opacity="1.000000" stroke="none" 
	d="
M439.000000,76.531342 
	C436.282074,67.536743 431.497101,59.241009 422.742310,54.495003 
	C417.582550,51.697872 411.413757,49.238785 405.692474,49.224945 
	C283.090027,48.928333 160.485596,49.243904 37.884613,48.724300 
	C20.423532,48.650295 2.228183,63.939716 1.337795,81.787590 
	C1.000000,55.019859 1.000000,28.039719 1.000004,1.059263 
	C147.000015,1.058948 293.000000,1.058948 439.000000,1.058948 
	C439.000000,26.099493 439.000000,51.081089 439.000000,76.531342 
z"/>
<path fill="#FFFFFF" opacity="1.000000" stroke="none" 
	d="
M1.841842,436.019379 
	C2.568458,451.892639 10.066666,463.418152 24.198700,470.591125 
	C25.893385,471.451233 27.882757,471.730743 29.867769,472.639709 
	C20.397875,473.000000 10.795748,473.000000 1.000000,473.000000 
	C1.000000,460.979797 1.000000,448.958557 1.209685,436.507202 
	C1.419370,436.077087 1.841842,436.019379 1.841842,436.019379 
z"/>
<path fill="#FFFFFF" opacity="1.000000" stroke="none" 
	d="
M411.468658,473.000000 
	C416.748260,469.418823 423.043152,466.469055 428.100952,462.090302 
	C433.901825,457.068176 436.846466,449.896576 438.633759,442.136169 
	C439.000000,452.256073 439.000000,462.512177 439.000000,473.000000 
	C429.980438,473.000000 420.958862,473.000000 411.468658,473.000000 
z"/>
<path fill="#D46C8C" opacity="1.000000" stroke="none" 
	d="
M1.901277,435.554749 
	C1.841842,436.019379 1.419370,436.077087 1.209685,436.038544 
	C1.000000,393.312439 1.000000,350.624878 1.000000,307.468658 
	C1.469767,307.005890 1.939535,307.011780 2.761428,307.032715 
	C2.742321,309.120117 2.051072,311.191895 2.047157,313.265015 
	C1.970469,353.873291 1.973759,394.481689 1.901277,435.554749 
z"/>
<path fill="#F8F8F7" opacity="1.000000" stroke="none" 
	d="
M293.758026,311.852783 
	C300.873871,320.605347 307.752808,329.134003 314.544128,337.731903 
	C324.463318,350.289795 322.862091,367.236908 310.909485,376.899963 
	C298.542389,386.898071 281.684662,385.055542 271.426727,372.508606 
	C253.436417,350.503784 235.489578,328.463440 217.129791,305.922424 
	C211.457565,298.887085 206.180054,292.367279 200.098541,284.854248 
	C200.098541,290.901794 200.098541,295.344757 200.098541,299.787689 
	C200.065872,318.430695 200.068817,337.073883 199.989059,355.716675 
	C199.927383,370.131012 188.509842,382.546600 174.908890,383.112671 
	C158.379440,383.800598 146.225403,373.582062 144.850311,356.963715 
	C144.793396,336.056030 144.731964,316.021637 144.670532,295.987274 
	C144.726730,289.963867 144.782928,283.940491 144.781006,277.289581 
	C144.722885,276.662079 144.670532,276.292664 144.670532,276.292664 
	C144.727188,235.814789 144.820267,195.336914 144.804962,154.859070 
	C144.802383,148.047333 146.827255,142.145844 151.195618,136.950592 
	C158.556412,128.196472 170.540253,124.906357 181.525681,128.712753 
	C192.407425,132.483200 199.935806,142.655640 199.972519,154.122742 
	C200.057343,180.609528 200.000778,207.096771 200.001526,233.583832 
	C200.001587,235.363388 200.001541,237.142944 200.001541,240.219101 
	C207.456924,233.178482 214.055679,226.972885 220.625870,220.737167 
	C239.224380,203.085510 257.668274,185.267654 276.456360,167.820297 
	C287.677460,157.399933 305.169922,158.197128 315.166809,168.974609 
	C325.643219,180.269073 325.476959,197.481888 314.391235,208.153976 
	C294.865479,226.951157 275.128174,245.528580 255.169937,264.492065 
	C267.910187,280.177216 280.696075,295.918518 293.758026,311.852783 
z"/>
<path fill="#332E6C" opacity="1.000000" stroke="none" 
	d="
M144.395966,276.280151 
	C144.670532,276.292664 144.722885,276.662079 144.657532,276.836731 
	C144.177628,276.846954 143.763077,276.682495 143.192993,276.353058 
	C143.398773,276.214600 143.760071,276.241119 144.395966,276.280151 
z"/>
<path fill="#332E6C" opacity="1.000000" stroke="none" 
	d="
M144.345383,296.060394 
	C144.731964,316.021637 144.793396,336.056030 144.763672,356.552155 
	C124.627052,355.983856 114.461533,335.954895 121.135811,320.318451 
	C122.341385,317.494049 124.005028,314.624786 126.165611,312.494843 
	C131.910522,306.831482 138.042297,301.560516 144.345383,296.060394 
z"/>
<path fill="#DE7893" opacity="1.000000" stroke="none" 
	d="
M200.467773,299.825500 
	C200.098541,295.344757 200.098541,290.901794 200.098541,284.854248 
	C206.180054,292.367279 211.457565,298.887085 216.868256,305.717010 
	C211.613281,303.972565 206.225143,301.917938 200.467773,299.825500 
z"/>
</svg>